<?xml version="1.0" encoding="UTF-8"?>
<svg width="197px" height="70px" viewBox="0 0 197 70" version="1.1" xmlns="http://www.w3.org/2000/svg" xmlns:xlink="http://www.w3.org/1999/xlink">
    <!-- Generator: Sketch 42 (36781) - http://www.bohemiancoding.com/sketch -->
    <title>Shape</title>
    <desc>Created with Sketch.</desc>
    <defs></defs>
    <g id="Page-1" stroke="none" stroke-width="1" fill="none" fill-rule="evenodd">
        <path d="M22.23,69.966 C16.39,69.734 11.612,68.136 7.876,65.168 C7.163,64.601 5.464,62.901 4.894,62.184 C3.379,60.279 2.349,58.425 1.662,56.368 C-0.452,50.036 0.636,41.727 4.774,32.608 C8.317,24.801 13.784,17.058 23.322,6.334 C24.727,4.756 28.911,0.141 28.938,0.141 C28.948,0.141 28.72,0.536 28.433,1.017 C25.953,5.171 23.831,10.064 22.675,14.3 C20.818,21.097 21.042,26.93 23.331,31.453 C24.91,34.569 27.617,37.268 30.661,38.76 C35.99,41.371 43.792,41.587 53.32,39.392 C53.976,39.24 86.482,30.611 125.556,20.216 C164.63,9.82 196.605,1.321 196.61,1.328 C196.621,1.337 105.83,40.187 58.699,60.342 C51.235,63.533 49.239,64.339 45.73,65.571 C36.76,68.721 28.725,70.224 22.23,69.966 Z" id="Shape" fill="#A2D550" fill-rule="nonzero"></path>
    </g>
</svg>